# xmcd CD database file
#
# Track frame offsets:
#	150
#	14164
#	28561
#	40562
#	55405
#	63700
#	70609
#	81308
#	104530
#	122603
#	131811
#	144963
#
# Disc length: 2053 seconds
#
# Revision: 0
# Processed by: cddbd v1.5PL3 Copyright (c) Steve Scherf et al.
# Submitted via: CDex 1.50
#
DISCID=aa08030c
DTITLE=Glenn Miller - Glenn Miller
DYEAR=2003
DGENRE=Jazz
TTITLE0=A String Of Pearls
TTITLE1=Don't Sit Under The Apple Tree
TTITLE2=Wishing (Will Make It So)
TTITLE3=My Nlue Heaven
TTITLE4=Fools Rush In (Where Angels Fear To Tread)
TTITLE5=The Very Thought Of You
TTITLE6=The Lamp Is Low
TTITLE7=Poinciana
TTITLE8=In A Sentimental Mood 
TTITLE9=Serenade In Blue
TTITLE10=Moonlight Cocktail
TTITLE11=Sunrise Serenade
EXTD=YEAR: 2003
EXTT0=
EXTT1=
EXTT2=
EXTT3=
EXTT4=
EXTT5=
EXTT6=
EXTT7=
EXTT8=
EXTT9=
EXTT10=
EXTT11=
PLAYORDER=
